HIERARCHY
ROOT Hips
{
	OFFSET -14.64140 90.27770 -84.91600
	CHANNELS 6 Xposition Yposition Zposition Zrotation Xrotation Yrotation
	JOINT Spine
	{
		OFFSET 0.00000 13.20850 -1.60436
		CHANNELS 3 Zrotation Xrotation Yrotation
		JOINT Spine1
		{
			OFFSET 0.00000 8.61716 0.00000
			CHANNELS 3 Zrotation Xrotation Yrotation
			JOINT Spine2
			{
				OFFSET 0.00000 8.61717 0.00000
				CHANNELS 3 Zrotation Xrotation Yrotation
				JOINT Spine3
				{
					OFFSET 0.00000 8.61717 0.00000
					CHANNELS 3 Zrotation Xrotation Yrotation
					JOINT Neck
					{
						OFFSET 0.00000 11.07920 1.10792
						CHANNELS 3 Zrotation Xrotation Yrotation
						JOINT Neck1
						{
							OFFSET 0.00000 7.08032 0.00000
							CHANNELS 3 Zrotation Xrotation Yrotation
							JOINT Head
							{
								OFFSET 0.00000 7.08031 0.00000
								CHANNELS 3 Zrotation Xrotation Yrotation
								End site
								{
									OFFSET 0.00000 0.00000 0.00000
								}
							}
						}
					}
					JOINT RightShoulder
					{
						OFFSET -0.01000 7.91373 5.19711
						CHANNELS 3 Zrotation Xrotation Yrotation
						JOINT RightArm
						{
							OFFSET -18.41580 0.00000 0.00000
							CHANNELS 3 Zrotation Xrotation Yrotation
							JOINT RightForeArm
							{
								OFFSET -29.11090 0.00000 0.00000
								CHANNELS 3 Zrotation Xrotation Yrotation
								JOINT RightHand
								{
									OFFSET -24.65040 0.00000 0.00000
									CHANNELS 3 Zrotation Xrotation Yrotation
									JOINT RightHandThumb1
									{
										OFFSET -5.35114 -0.85590 3.97906
										CHANNELS 3 Zrotation Xrotation Yrotation
										JOINT RightHandThumb2
										{
											OFFSET -4.52789 0.00000 0.00000
											CHANNELS 3 Zrotation Xrotation Yrotation
											JOINT RightHandThumb3
											{
												OFFSET -2.46976 0.00000 0.00000
												CHANNELS 3 Zrotation Xrotation Yrotation
												End site
												{
													OFFSET 0.00000 0.00000 0.00000
												}
											}
										}
									}
									JOINT RightHandIndex1
									{
										OFFSET -14.26970 0.00000 2.88139
										CHANNELS 3 Zrotation Xrotation Yrotation
										JOINT RightHandIndex2
										{
											OFFSET -5.48836 0.00000 0.00000
											CHANNELS 3 Zrotation Xrotation Yrotation
											JOINT RightHandIndex3
											{
												OFFSET -3.01859 0.00000 0.00000
												CHANNELS 3 Zrotation Xrotation Yrotation
												End site
												{
													OFFSET 0.00000 0.00000 0.00000
												}
											}
										}
									}
									JOINT RightHandMiddle1
									{
										OFFSET -14.26970 0.00000 -0.09147
										CHANNELS 3 Zrotation Xrotation Yrotation
										JOINT RightHandMiddle2
										{
											OFFSET -6.17441 0.00000 0.00000
											CHANNELS 3 Zrotation Xrotation Yrotation
											JOINT RightHandMiddle3
											{
												OFFSET -3.56743 0.00000 0.00000
												CHANNELS 3 Zrotation Xrotation Yrotation
												End site
												{
													OFFSET 0.00000 0.00000 0.00000
												}
											}
										}
									}
									JOINT RightHandRing1
									{
										OFFSET -12.69180 0.00000 -3.06433
										CHANNELS 3 Zrotation Xrotation Yrotation
										JOINT RightHandRing2
										{
											OFFSET -5.62556 0.00000 0.00000
											CHANNELS 3 Zrotation Xrotation Yrotation
											JOINT RightHandRing3
											{
												OFFSET -3.56744 0.00000 0.00000
												CHANNELS 3 Zrotation Xrotation Yrotation
												End site
												{
													OFFSET 0.00000 0.00000 0.00000
												}
											}
										}
									}
									JOINT RightHandPinky1
									{
										OFFSET -11.11390 0.00000 -6.03719
										CHANNELS 3 Zrotation Xrotation Yrotation
										JOINT RightHandPinky2
										{
											OFFSET -4.52789 0.00000 0.00000
											CHANNELS 3 Zrotation Xrotation Yrotation
											JOINT RightHandPinky3
											{
												OFFSET -2.46976 0.00000 0.00000
												CHANNELS 3 Zrotation Xrotation Yrotation
												End site
												{
													OFFSET 0.00000 0.00000 0.00000
												}
											}
										}
									}
								}
							}
						}
					}
					JOINT LeftShoulder
					{
						OFFSET 0.01000 7.91373 5.19711
						CHANNELS 3 Zrotation Xrotation Yrotation
						JOINT LeftArm
						{
							OFFSET 18.41580 0.00000 0.00000
							CHANNELS 3 Zrotation Xrotation Yrotation
							JOINT LeftForeArm
							{
								OFFSET 29.11090 0.00000 0.00000
								CHANNELS 3 Zrotation Xrotation Yrotation
								JOINT LeftHand
								{
									OFFSET 24.65040 0.00000 0.00000
									CHANNELS 3 Zrotation Xrotation Yrotation
									JOINT LeftHandThumb1
									{
										OFFSET 5.35114 -0.85590 3.97906
										CHANNELS 3 Zrotation Xrotation Yrotation
										JOINT LeftHandThumb2
										{
											OFFSET 4.52789 0.00000 0.00000
											CHANNELS 3 Zrotation Xrotation Yrotation
											JOINT LeftHandThumb3
											{
												OFFSET 2.46977 0.00000 0.00000
												CHANNELS 3 Zrotation Xrotation Yrotation
												End site
												{
													OFFSET 0.00000 0.00000 0.00000
												}
											}
										}
									}
									JOINT LeftHandIndex1
									{
										OFFSET 14.26970 0.00000 2.88139
										CHANNELS 3 Zrotation Xrotation Yrotation
										JOINT LeftHandIndex2
										{
											OFFSET 5.48836 0.00000 0.00000
											CHANNELS 3 Zrotation Xrotation Yrotation
											JOINT LeftHandIndex3
											{
												OFFSET 3.01859 0.00000 0.00000
												CHANNELS 3 Zrotation Xrotation Yrotation
												End site
												{
													OFFSET 0.00000 0.00000 0.00000
												}
											}
										}
									}
									JOINT LeftHandMiddle1
									{
										OFFSET 14.26970 0.00000 -0.09147
										CHANNELS 3 Zrotation Xrotation Yrotation
										JOINT LeftHandMiddle2
										{
											OFFSET 6.17440 0.00000 0.00000
											CHANNELS 3 Zrotation Xrotation Yrotation
											JOINT LeftHandMiddle3
											{
												OFFSET 3.56744 0.00000 0.00000
												CHANNELS 3 Zrotation Xrotation Yrotation
												End site
												{
													OFFSET 0.00000 0.00000 0.00000
												}
											}
										}
									}
									JOINT LeftHandRing1
									{
										OFFSET 12.69180 0.00000 -3.06433
										CHANNELS 3 Zrotation Xrotation Yrotation
										JOINT LeftHandRing2
										{
											OFFSET 5.62556 0.00000 0.00000
											CHANNELS 3 Zrotation Xrotation Yrotation
											JOINT LeftHandRing3
											{
												OFFSET 3.56744 0.00000 0.00000
												CHANNELS 3 Zrotation Xrotation Yrotation
												End site
												{
													OFFSET 0.00000 0.00000 0.00000
												}
											}
										}
									}
									JOINT LeftHandPinky1
									{
										OFFSET 11.11390 0.00000 -6.03719
										CHANNELS 3 Zrotation Xrotation Yrotation
										JOINT LeftHandPinky2
										{
											OFFSET 4.52789 0.00000 0.00000
											CHANNELS 3 Zrotation Xrotation Yrotation
											JOINT LeftHandPinky3
											{
												OFFSET 2.46976 0.00000 0.00000
												CHANNELS 3 Zrotation Xrotation Yrotation
												End site
												{
													OFFSET 0.00000 0.00000 0.00000
												}
											}
										}
									}
								}
							}
						}
					}
					JOINT pCube4
					{
						OFFSET 0.00000 10.91090 1.10792
						CHANNELS 3 Zrotation Xrotation Yrotation
						End site
						{
							OFFSET 0.00000 0.00000 0.00000
						}
					}
				}
			}
		}
	}
	JOINT RightUpLeg
	{
		OFFSET -9.98441 0.00000 0.00000
		CHANNELS 3 Zrotation Xrotation Yrotation
		JOINT RightLeg
		{
			OFFSET 0.00000 -42.11790 0.00000
			CHANNELS 3 Zrotation Xrotation Yrotation
			JOINT RightFoot
			{
				OFFSET 0.00000 -45.00020 -0.00001
				CHANNELS 3 Zrotation Xrotation Yrotation
				JOINT RightForeFoot
				{
					OFFSET 0.00000 -3.74820 0.00000
					CHANNELS 3 Zrotation Xrotation Yrotation
					JOINT RightToeBase
					{
						OFFSET 0.00000 0.06325 14.43120
						CHANNELS 3 Zrotation Xrotation Yrotation
						End site
						{
							OFFSET 0.00000 0.00000 0.00000
						}
					}
				}
			}
		}
	}
	JOINT LeftUpLeg
	{
		OFFSET 9.98441 0.00000 0.00000
		CHANNELS 3 Zrotation Xrotation Yrotation
		JOINT LeftLeg
		{
			OFFSET 0.00000 -42.11800 0.00000
			CHANNELS 3 Zrotation Xrotation Yrotation
			JOINT LeftFoot
			{
				OFFSET 0.00000 -45.00070 0.00000
				CHANNELS 3 Zrotation Xrotation Yrotation
				JOINT LeftForeFoot
				{
					OFFSET 0.00000 -3.74824 0.00000
					CHANNELS 3 Zrotation Xrotation Yrotation
					JOINT LeftToeBase
					{
						OFFSET 0.00000 0.06325 14.43110
						CHANNELS 3 Zrotation Xrotation Yrotation
						End site
						{
							OFFSET 0.00000 0.00000 0.00000
						}
					}
				}
			}
		}
	}
}
MOTION
Frames: 4
Frame Time: 0.050000
0.0114388275715626 0.018464016353795656 0.02179501422273873 0.002377871894431415 0.0295996274977552 -0.022619810494905006 -3.087807977591814 6.5166759637116085 -0.7046042771914329 -0.682260026591057 3.1879158492015813 0.4087408505048703 -0.8537906720898457 -0.09500447311716817 -0.6262983670828443 -0.3226886009769863 0.23821704330353755 -0.873844347210012 -0.053063645269237146 7.408561777206382 -0.5863246739855261 -0.016529446189393594 -2.0038581809481073 -4.617923329941949 0.34176151071547584 -16.960806285491934 -0.32139964970990703 4.244928540553214 -0.13947716907414562 -11.288473970084997 71.03434166666189 9.053313851986486 5.807821316743067 18.884160213086407 13.868253157289363 67.12084291826285 25.983363718596266 0.175441742760574 -8.819225821581249 4.493972986337675 -0.14774471649115778 -1.5834649365110094 -0.023087150925868587 0.027947991137939172 -56.25146991445292 0.037760268072850316 0.032699501266388396 -56.26694950331122 -38.795285555594546 0.02035727840002715 -0.038018817355042166 -0.025556551446265157 -0.03458202875469475 -0.04921540551874711 0.017041799296103822 -0.03462716119566793 0.0032453613491042217 -36.711199411923396 0.022665933657362417 0.024806810780889362 0.047719778125421775 0.02228304391913469 0.029218546307820437 0.02895377898228151 -0.03356405905598288 0.03207987619653669 -19.711734843642457 0.03520885024902925 -0.012688823371999489 0.03309260767446432 -0.04347128363628603 -0.022338776106028125 0.022227725184603673 0.007201121306172168 0.017464774041474777 24.025202757625994 -0.04080034460937895 -0.028243042420899152 28.905922597803805 -0.021983434486450144 0.02410862647972998 28.81731067667217 0.023194667136813864 -0.00726520511973275 -3.24001212299268 0.012191411028376533 10.056712993488237 -68.83571906436 18.642254384151983 -7.765584726383732 -9.460867636427325 9.721422356052123 -49.076244058682185 -17.85998280535622 5.7672679024295865 -1.5394632303074196 -0.5153402594757001 0.029653023711085635 -8.158919457219003 0.005568279104509824 -0.009124291531833811 44.56047211853626 -0.02656025294740896 0.001246707411475256 44.57758509488211 12.492853223033746 0.048187372155941384 -0.019714225175774206 0.006521375644208031 -0.015210412165040686 0.019124853889955183 0.044014363890004404 0.019070781235341817 -0.045795537095029745 11.109472342372538 -0.029713653207290417 0.0020429595146759087 -0.01841884550546535 0.008531404571461966 0.011202007820443036 0.007100706610603781 -0.03569139070092845 0.025325952093661203 4.726162269063808 -0.00979668085910351 -0.020282559760399575 0.01323618784892542 0.03999517256723275 0.0017251687211020433 -0.034993603787387105 0.04939573919127144 -0.0014339373706686498 -5.581123106566132 0.009884002467975267 0.001375897005857935 -6.732006832136417 -0.022879117810246315 -0.00268742951086829 -6.701232912625539 -0.027462841299769596 -0.026326892082768394 -0.011851718093169029 -0.013620291730240406 -0.04588661305600915 8.036343666376847 3.4984927504927366 -19.26406191385536 0.03015859198727338 10.34582539652139 0.02943962803242368 -5.620067432944351 -15.66452438186499 3.1692503907572536 -0.017128522278307832 0.006517719269046479 -0.04868420539611625 0.018894853648322676 4.682299372894776 0.007872993923963106 12.410555046021502 -8.286037581408555 6.8718427276879686 0.01689761380469926 46.367868246332854 -0.01332841049017248 -4.308793146728381 -14.79367877370567 -3.84864406338347 -0.04581346408500926 0.003214735523430445 0.03835602948622046 -0.03842867595971334 -10.727810423643557 -0.0011794917231979492 
-0.021328030963427988 0.02952041160854962 -0.03589635627521101 0.018771163395899012 0.03087325801070518 0.010099817504755217 -2.219229800832805 5.687898876110957 -0.8351231704374669 -0.6737238891411014 3.282108374507681 0.334649574958614 -0.8403195950617073 -0.3618741590825017 -0.46413709780541085 -0.2580796709685906 0.1511620207297863 -0.7276612413248448 -0.05988700267653643 8.322040016159118 -0.6948255324124436 0.015264610687216278 -1.8935195014223236 -4.549954099514493 0.39634798126223675 -17.304185285379734 -0.40755796490458157 2.122951934753563 0.3911112599335509 -11.779241230645857 72.64270074276101 10.216948806815617 8.334775673895555 29.904496437435583 11.435142684143104 76.03519945996206 23.37734008408609 0.05918917397828977 -9.115274679601976 4.5499980483189795 -0.15892900018573192 -1.5502460431475964 -0.03087684868491777 -0.008750078850874985 -56.233920650883626 -0.035223801394976814 -0.02517461348759581 -56.20544467006034 -38.80265452856281 0.04854900004948357 0.028155530633724998 0.009887979895627666 0.00514135303633602 -0.03571281046191529 -0.018423447953087962 -0.02441423283806044 -0.01384637485185798 -36.68699662885562 -0.03831757824503263 0.014966490751402923 0.006275900499665418 -0.005338569233448984 0.0024903326994754845 -0.029199039601494843 -0.026139394383874564 0.02016301840974902 -19.762980536145843 -0.0034187692696839734 0.01614052526584383 -0.01985905611569236 0.03219784190214557 -0.0034042166560958095 0.02215289441529264 0.009413110067999442 -0.03061993232039989 24.062903719938763 -0.014632599027247848 -0.018078375358789294 28.86051088689849 0.04523245048979927 0.005158954089261125 28.823074589806193 -0.03369243446051068 0.0337894700730141 -1.1783338012367688 0.430162415579658 10.510388715445012 -70.15475385925177 19.736064534907165 -8.965557335873124 -15.064398693271936 9.420587253418942 -52.89962162946627 -16.430309874822832 4.542041105143921 -0.6283670895177903 -0.5132026951149867 0.07323567952774827 -8.163929990130836 -0.020205836783438496 -0.012010817933814063 44.54851900552273 0.02664871019209162 -0.014514728339331411 44.5596966114476 12.45243048566982 -0.032475339598201425 0.0161722918785137 0.044806952581726706 -0.03792569956371004 -0.0011124851567240164 -0.0001128086587632379 -0.01781609181077713 0.04511830192600851 11.086643053870068 0.008508252963814017 -0.004272851855567174 0.010572870661685262 -0.01954785744948704 -0.007379169826925099 -0.019132615527918072 0.017440416732795054 -0.04316536679737982 4.738929705706726 -0.012297551836286717 0.007408674020441688 -0.02256494429876506 0.02100027197787787 0.023284979249976603 0.017834754213654644 -0.03521034298359467 0.045435976016628785 -5.581111237542537 -0.04049721771949921 -0.037860055700314144 -6.693468046433607 0.002651261855049172 -0.03209144841004762 -6.672475877186873 -0.00658067950050629 -0.0399124691632794 0.017583164709909147 0.009172241319540374 -0.04647796507158521 8.059712979721587 3.471103023874775 -19.264724191861266 0.028422673994227772 10.38190327035414 -0.011102627814274485 -5.623470137617393 -15.67256005990783 3.1740980920599267 -0.008718670453710897 0.012935424010294407 -0.021270332000656214 0.008816193517061354 4.719946811424363 0.021563119415584888 12.423582947900877 -8.246257754990875 6.869483398461588 -0.0033828470822297617 46.40195713642949 -0.04044212812632873 -4.287323193082031 -14.723081022895496 -3.849217832923467 -0.03150336592253725 -0.02663879966482718 -0.013652878627364586 -0.03771038063992872 -10.696583562257423 0.011875146302161962 
-0.031297566226730765 -0.032867119034384114 -0.009100212015379305 0.023056032101374455 -0.03523848304293772 0.04643926184234702 -1.3001890870406365 4.8997688430411435 -1.014440335317946 -0.6807104318751387 3.3796325108597376 0.35486414936738353 -0.8038885833986532 -0.5782538571319918 -0.2548700429906076 -0.27177466650388127 0.1362606850306175 -0.6919010149335065 -0.03409717256843631 9.170946079440512 -0.8225750118127392 0.054781452122737176 -1.7878444686802573 -4.456451088473517 0.46149535023371163 -17.41399962633624 -0.3561661478860534 0.02940504691224081 0.990803750968952 -12.244901683860107 74.42907083245879 10.997983288866894 10.654737362495428 38.21939406948002 8.213857713727267 82.66318263402408 21.05089547512117 -0.045219531395231466 -9.086925578574112 4.5097951316264036 -0.154237258085907 -1.5839396002601427 -0.034165027002721685 -0.04503667137431683 -56.22021607623053 -0.00892329128862369 -0.02072532703004043 -56.28232094476995 -38.80983589946084 0.025877911030776583 0.014280614051096348 0.02837113055186012 -0.002422908620896961 0.024310491192807517 -0.012693872360917242 -0.007636134622931851 0.0032357858232340674 -36.680086114197074 0.042248130996974435 0.04343691519794107 0.022767534815452194 0.0068752586009037655 -0.019385227558801787 -0.02627846539046435 -0.006614100180331927 -0.026406836755818047 -19.75123516792987 -0.010683882538241105 0.02283427939007675 -0.04033692833902386 0.0478072091633594 0.03169694754411071 0.049405223740398484 -0.048261348904024136 -0.0213338409105488 24.02327518519204 0.024293543281085166 -0.0019683635829546883 28.878185135559253 -0.013286306891551062 0.009077747637298616 28.84129412450862 -0.04083396036685118 0.009349752155157197 0.8404238639202486 0.7673097695123479 10.826190863324666 -71.4220541726829 20.702759595097753 -10.048713585901112 -19.67720453428262 8.245107208946333 -56.08773038189952 -15.161431597943553 2.9913430785971666 0.3234431322731023 -0.4824063565707325 0.10261145409650886 -8.124675849439432 0.0038563704982820654 -0.004263494397308437 44.55008527578985 -0.03910335364283369 -0.012345636550722145 44.59526954728316 12.452203284899802 0.04281885908658805 -0.012968678227094894 -0.03097377211757836 0.025333573478267667 0.005370866513128599 -0.04247969475775111 0.03132597458151963 0.041641008438473404 11.13158964446518 0.04691776314756747 -0.0328375724715214 -0.04080714765838568 0.01852267660447906 -0.005706859700918355 0.018322455823295784 -0.035827713286204085 -0.04485602140873649 4.778520768754015 -0.023911591023390924 0.011339335567974196 0.012307855388006314 0.014917573399297529 0.009848717590742715 0.0259136464818982 -0.047309742418847806 -0.04487570177397693 -5.634214720616528 -0.004744282184425542 -0.04965364001682846 -6.748753985660689 -0.024894320123217583 -0.025697131107414155 -6.711359000658292 -0.009369052264111687 0.031204725101991935 -0.023798121482706283 -0.04823246066196359 -0.026505355914131754 8.065195079543738 3.4950153729415003 -19.23476911053174 -0.007865095030136013 10.350335720886006 0.003942991756730765 -5.595533776290188 -15.623265718274947 3.193144403694677 0.02874983073306029 0.011346943046846672 0.02168889110320826 0.01847691679377918 4.734812009240273 0.006633159127933733 12.456519313796441 -8.227493779048684 6.922605500005983 -0.022833882311261187 46.34945605778205 0.0014547959264415602 -4.318565296140051 -14.782239604345493 -3.8341802427547655 0.041274670268292374 -0.03933354832713921 0.012695671134624817 0.009818547530872282 -10.7466525279966 -0.03915911792027606 
0.002097877526301281 -0.04408432337250157 0.010407134643542794 0.03715554549909373 -0.00971028547100542 -0.031208694961652503 -0.4800261769637844 4.268165508428015 -1.184980393831129 -0.7404268887168439 3.3640816086101606 0.39959857345573435 -0.8677043125435948 -0.723602004193469 -0.0932626990136525 -0.2533433002437737 0.10204071176156433 -0.6087287919456058 0.035621891721598166 9.664211919783185 -0.9656041432265556 0.0888146292526469 -1.6059173842946812 -4.378380812176717 0.5584010238795145 -17.280700252828346 -0.3252259879810081 -1.6405895868688192 1.400763305152155 -12.72463584523649 76.00321940369707 11.015023938470023 12.143608280792687 42.89006480778185 5.733954600557686 85.92238829232114 19.263145536465725 -0.19780244627445684 -8.716196395332455 4.509558042591473 -0.14141135272189367 -1.6070632213609548 -0.005294909769892997 0.0027588654104386467 -56.22857974604209 0.02673292183556073 0.0030196272862209705 -56.18713940175732 -38.78116106000976 0.0482990779933765 0.00024983126448352124 -0.035282801215687595 0.046082794656720584 -0.008799592379698688 0.020397652780104067 -0.024512911997258694 0.019277786518328302 -36.73934038878165 0.01034201359915696 0.03191810289543403 0.022141066312716458 -0.021736643531819436 -0.00869583592304882 0.036122124468292556 -0.006898771465552925 9.439101416613208e-05 -19.758956880951906 0.005859276617850413 -0.009669261926480793 -0.0044155985591007915 -0.026213986028887706 -0.04685761423731868 0.023667805171077933 0.02500079400583902 -0.038778098626863614 24.078248946866314 -0.01061252288460989 -0.007347527039231332 28.858543358223166 0.0357285324972561 0.017496730273149 28.83920590225468 0.007100329950130819 -0.0067737369768378925 2.4795818992152086 1.0777033739008526 11.140643165028516 -72.39714818060517 21.135830991281424 -10.671354761884151 -21.519304030411305 6.375445760308696 -57.414184811153035 -14.658215051397391 1.548219556457198 1.0851885940171624 -0.45704008272878544 0.0281660781005839 -8.094789975739095 -0.04551053261237214 0.012120676405893248 44.597080646407754 0.0315162343727667 0.03313359879897574 44.56150237601943 12.461604665197962 -0.029911582324722883 0.02229189810459205 -0.02862679920433129 0.029405355934972694 -0.04310340070350934 -0.037562249441837614 -0.016122293415699953 -0.006637553933504181 11.060678013646394 0.04877435481093798 0.004034247324519226 0.029033155309124165 0.02500663465043988 0.045576535184706904 -0.0026441672363143815 -0.021821449870525506 0.02652297154143284 4.763288590192479 -0.021712705448440055 -0.0011753423252104 0.009841934802681846 0.029137611762416873 0.015975276537175183 -0.0022928444688772474 0.015352883630651461 1.5145772257181956e-05 -5.577425683130732 -0.008085467432031247 0.014009258147775316 -6.70890344434328 0.025212087748583068 0.012153580722747703 -6.684360495954288 0.016668439634069294 -0.010395868447923505 -0.01431232887659819 -0.018163112984971943 0.0012673975654614363 8.055943858814043 3.467233998390808 -19.248059404742513 0.033213366981157934 10.370105560788108 -0.007645546633598153 -5.66454140530619 -15.646138129884886 3.218463080571562 0.043875680212295806 -0.03513194040684376 -0.008863541111670085 -0.04391258990407645 4.688851830210999 -0.022936951500752343 12.427353793784178 -8.199700316915429 6.891635170101797 -0.009117831968308475 46.36616191582594 -0.010009797131374596 -4.297462876740114 -14.706099346322963 -3.8405158989914465 0.009556183084114591 -0.007555557139456193 -0.018626491961263644 0.0013040008689706377 -10.714876380374658 0.013632518709820952 
